<svg width="22" height="23" viewBox="0 0 22 23" fill="none" xmlns="http://www.w3.org/2000/svg">
<g clip-path="url(#clip0_0_1120)">
<path d="M22 22.3608H0V0.36084H22V22.3608Z" fill="#101010" fill-opacity="0.3"/>
<path d="M5.61135 11.8541C5.61135 12.8991 5.90148 13.015 7.08192 13.0573V13.4443H2.37976V13.0573C3.34707 13.0184 3.63789 12.9026 3.63789 11.8541V5.04341C3.63789 3.99842 3.34776 3.88257 2.41895 3.84029V3.45667H10.7198L10.7783 5.64292H10.3709C10.0227 4.54017 9.63529 4.17235 7.70067 4.17235H6.18817C5.7241 4.17235 5.62717 4.2686 5.62717 4.6756V7.84841H6.36279C7.9107 7.84841 8.23967 7.55829 8.4332 6.53254H8.82026V10.0347H8.4332C8.22007 8.87382 7.63982 8.5641 6.36279 8.5641H5.62717L5.61135 11.8541ZM20.1039 3.47592H11.3967L11.1835 5.66216H11.6868C11.9962 4.59792 12.4802 4.1916 13.5248 4.1916H14.7438V11.8352C14.7438 12.8802 14.4536 12.9961 13.3505 13.0384V13.4254H18.15V13.0349C17.0276 12.9961 16.7568 12.8802 16.7568 11.8318V4.21085H17.9757C19.0207 4.21085 19.4882 4.59792 19.8137 5.68141H20.317L20.1039 3.47592Z" fill="#FAFAFA"/>
</g>
<defs>
<clipPath id="clip0_0_1120">
<rect width="22" height="22" fill="white" transform="translate(0 0.36084)"/>
</clipPath>
</defs>
</svg>
